# Blender 5.0.0
# www.blender.org
mtllib turuncu_cizgi.mtl
o Plane.006
v -0.074997 -5.733599 0.000000
v 0.074997 -5.733599 0.000000
v -0.074997 5.733601 0.000000
v 0.074997 5.733601 0.000000
v -0.074997 5.733601 0.010000
v -0.074997 -5.733599 0.010000
v 0.074997 -5.733599 0.010000
v 0.074997 5.733601 0.010000
vn -0.0000 -0.0000 -1.0000
vn -0.0000 -0.0000 1.0000
vn -0.0000 1.0000 -0.0000
vn -0.0000 -1.0000 -0.0000
vn 1.0000 -0.0000 -0.0000
vn -1.0000 -0.0000 -0.0000
vt 0.000000 1.000000
vt 1.000000 0.000000
vt 0.000000 0.000000
vt 1.000000 1.000000
s 0
usemtl Material.012
f 3/1/1 2/2/1 1/3/1
f 7/2/2 5/1/2 6/3/2
f 3/1/3 8/4/3 4/4/3
f 2/2/4 6/3/4 1/3/4
f 4/4/5 7/2/5 2/2/5
f 1/3/6 5/1/6 3/1/6
f 3/1/1 4/4/1 2/2/1
f 7/2/2 8/4/2 5/1/2
f 3/1/3 5/1/3 8/4/3
f 2/2/4 7/2/4 6/3/4
f 4/4/5 8/4/5 7/2/5
f 1/3/6 6/3/6 5/1/6
